<?xml version="1.0" encoding="iso-8859-1"?>
<!-- Generator: Adobe Illustrator 19.0.0, SVG Export Plug-In . SVG Version: 6.00 Build 0)  -->
<svg version="1.1" id="Layer_1" xmlns="http://www.w3.org/2000/svg" xmlns:xlink="http://www.w3.org/1999/xlink" x="0px" y="0px"
	 viewBox="0 0 512 512" style="enable-background:new 0 0 512 512;" xml:space="preserve">
<polygon style="fill:#7DAEC9;" points="390.55,58.746 390.55,58.747 390.55,0 46,0 46,453.254 121.452,453.254 "/>
<polygon style="fill:#4386C9;" points="390.55,58.746 390.55,58.747 390.55,0 46,0 46,453.254 121.452,453.254 "/>
<g>
	<rect x="45.997" style="fill:#ABCDE0;" width="172.272" height="453.256"/>
	<polygon style="fill:#ABCDE0;" points="121.452,58.746 121.452,512 466.003,512 466.003,134.198 390.55,58.746 	"/>
</g>
<rect x="121.45" y="58.744" style="fill:#D6F1FF;" width="172.272" height="453.256"/>
<g>
	<polygon style="fill:#4386C9;" points="466.003,134.198 390.55,134.198 390.55,58.746 	"/>
	<rect x="167.613" y="412.369" style="fill:#4386C9;" width="252.228" height="31.347"/>
	<rect x="167.613" y="355.307" style="fill:#4386C9;" width="252.228" height="31.347"/>
	<rect x="352.936" y="298.235" style="fill:#4386C9;" width="66.905" height="31.347"/>
	<rect x="167.613" y="298.235" style="fill:#4386C9;" width="156.829" height="31.347"/>
	<rect x="167.613" y="184.101" style="fill:#4386C9;" width="66.905" height="31.347"/>
	<rect x="263.012" y="184.101" style="fill:#4386C9;" width="156.829" height="31.347"/>
	<rect x="167.613" y="241.162" style="fill:#4386C9;" width="252.228" height="31.347"/>
	<rect x="167.613" y="127.028" style="fill:#4386C9;" width="162.764" height="31.347"/>
</g>
<g>
</g>
<g>
</g>
<g>
</g>
<g>
</g>
<g>
</g>
<g>
</g>
<g>
</g>
<g>
</g>
<g>
</g>
<g>
</g>
<g>
</g>
<g>
</g>
<g>
</g>
<g>
</g>
<g>
</g>
</svg>
