<?xml version="1.0" encoding="UTF-8"?>
<!DOCTYPE svg PUBLIC "-//W3C//DTD SVG 1.1//EN" "http://www.w3.org/Graphics/SVG/1.1/DTD/svg11.dtd">
<!-- Creator: CorelDRAW 2018 (64-Bit Evaluation Version) -->
<svg xmlns="http://www.w3.org/2000/svg" xml:space="preserve" width="1000mm" height="1000mm" version="1.1" style="shape-rendering:geometricPrecision; text-rendering:geometricPrecision; image-rendering:optimizeQuality; fill-rule:evenodd; clip-rule:evenodd"
viewBox="0 0 1000 1000"
 xmlns:xlink="http://www.w3.org/1999/xlink">
 <defs>
  <style type="text/css">
   <![CDATA[
    .fil0 {fill:#E04F5F}
   ]]>
  </style>
 </defs>
 <g id="Layer_x0020_1">
  <metadata id="CorelCorpID_0Corel-Layer"/>
  <path class="fil0" d="M0.0001 500.001c0,-276.0989 223.9019,-500.0009 500.0009,-500.0009 276.0972,0 499.9991,223.902 499.9991,500.0009 0,276.0971 -223.9019,499.9991 -499.9991,499.9991 -276.099,0 -500.0009,-223.902 -500.0009,-499.9991zm806.5292 -99.1552l-302.4959 -150.9495c-2.6193,-1.2063 -5.4401,-1.2063 -8.0612,0l-302.7027 150.9495c-3.4248,1.6144 -5.4419,4.8378 -5.4419,8.6653l0 59.656c0,3.2235 1.6144,6.2455 4.437,8.0613 2.8207,1.8158 6.2455,2.0171 9.0662,0.6041l298.6702 -149.1338 298.467 149.1338c1.2064,0.6022 2.6212,1.0049 4.0289,1.0049 1.8157,0 3.6243,-0.4027 5.0392,-1.413 2.8207,-1.8176 4.4351,-4.8397 4.4351,-8.0631l0 -60.0515c0,-3.6262 -2.0171,-7.051 -5.4419,-8.464zm-55.6218 78.6011l-250.9065 -124.9553 -250.9083 124.9553 0 231.7565 139.0607 0 0 -177.7492 95.7232 0 0 177.7492 267.0309 0 0 -231.7565zm-235.388 54.0073l64.4885 0 0 64.4867 -64.4885 0 0 -64.4867z"/>
 </g>
</svg>
